<svg width="107" height="24" viewBox="0 0 107 24" fill="none" xmlns="http://www.w3.org/2000/svg">
<path d="M44.048 4.626H47.378V18H44.048V4.626ZM41.456 18.126C40.976 18.126 40.562 18.048 40.214 17.892C39.878 17.736 39.608 17.484 39.404 17.136C39.176 16.776 39.008 16.296 38.9 15.696C38.804 15.096 38.756 14.346 38.756 13.446C38.756 11.682 38.972 10.446 39.404 9.738C39.812 9.042 40.496 8.694 41.456 8.694C41.888 8.694 42.242 8.73 42.518 8.802C42.794 8.862 43.052 8.988 43.292 9.18V11.466H43.094C42.83 11.466 42.638 11.484 42.518 11.52C42.41 11.544 42.326 11.61 42.266 11.718C42.206 11.85 42.17 12.042 42.158 12.294C42.146 12.474 42.14 12.846 42.14 13.41C42.14 13.974 42.146 14.346 42.158 14.526C42.17 14.778 42.206 14.97 42.266 15.102C42.326 15.222 42.422 15.294 42.554 15.318C42.722 15.342 42.902 15.354 43.094 15.354H43.292V17.64C43.052 17.82 42.782 17.946 42.482 18.018C42.194 18.09 41.852 18.126 41.456 18.126ZM49.5763 5.616H53.1763V18H49.5763V5.616ZM53.9323 15.246H54.6703C55.0063 15.246 55.2583 15.24 55.4263 15.228C55.6063 15.204 55.7383 15.156 55.8223 15.084C55.9063 15.012 55.9603 14.91 55.9843 14.778C56.0203 14.646 56.0383 14.454 56.0383 14.202C56.0383 13.938 56.0203 13.74 55.9843 13.608C55.9603 13.476 55.9063 13.374 55.8223 13.302C55.6783 13.182 55.2943 13.122 54.6703 13.122H53.9323V10.368H54.5623C54.8983 10.368 55.1503 10.362 55.3183 10.35C55.4983 10.326 55.6303 10.278 55.7143 10.206C55.7983 10.134 55.8523 10.038 55.8763 9.918C55.9123 9.786 55.9303 9.606 55.9303 9.378C55.9303 9.138 55.9123 8.958 55.8763 8.838C55.8523 8.706 55.7983 8.604 55.7143 8.532C55.6303 8.46 55.4983 8.418 55.3183 8.406C55.1503 8.382 54.8983 8.37 54.5623 8.37H53.9323V5.616H55.9843C58.3963 5.616 59.6023 6.654 59.6023 8.73C59.6023 9.606 59.4283 10.266 59.0803 10.71C58.7443 11.154 58.2043 11.466 57.4603 11.646V11.718C58.2403 11.898 58.7983 12.18 59.1343 12.564C59.5183 13.02 59.7103 13.728 59.7103 14.688C59.7103 15.792 59.4163 16.62 58.8283 17.172C58.2403 17.724 57.2983 18 56.0023 18H53.9323V15.246ZM64.0648 18.126C62.9848 18.126 62.2588 17.796 61.8868 17.136C61.7188 16.848 61.6048 16.5 61.5448 16.092C61.4848 15.672 61.4548 15.162 61.4548 14.562V8.82H64.7848V13.158C64.7848 13.794 64.7908 14.214 64.8028 14.418C64.8268 14.718 64.8628 14.934 64.9108 15.066C64.9588 15.198 65.0368 15.282 65.1448 15.318C65.2528 15.342 65.4448 15.354 65.7208 15.354H65.9008V17.604C65.4328 17.952 64.8208 18.126 64.0648 18.126ZM66.6568 8.82H69.9868V18H66.6568V8.82ZM76.1237 9.342C76.3757 9.102 76.6697 8.934 77.0057 8.838C77.3537 8.73 77.7797 8.676 78.2837 8.676V11.682C77.7437 11.682 77.2997 11.718 76.9517 11.79C76.6157 11.862 76.3397 11.988 76.1237 12.168V9.342ZM72.0377 8.82H75.3677V18H72.0377V8.82ZM82.0263 17.946C81.5463 17.946 81.1383 17.868 80.8023 17.712C80.4663 17.544 80.1903 17.28 79.9743 16.92C79.5423 16.224 79.3263 15.012 79.3263 13.284C79.3263 11.544 79.5423 10.338 79.9743 9.666C80.1903 9.33 80.4663 9.084 80.8023 8.928C81.1383 8.772 81.5463 8.694 82.0263 8.694C82.4343 8.694 82.7823 8.73 83.0703 8.802C83.3583 8.874 83.6223 9.006 83.8623 9.198V11.466H83.6643C83.4003 11.466 83.2083 11.484 83.0883 11.52C82.9803 11.544 82.8963 11.604 82.8363 11.7C82.7763 11.832 82.7403 12.018 82.7283 12.258C82.7163 12.426 82.7103 12.78 82.7103 13.32C82.7103 13.86 82.7163 14.214 82.7283 14.382C82.7403 14.634 82.7763 14.82 82.8363 14.94C82.8963 15.048 82.9923 15.114 83.1243 15.138C83.2923 15.162 83.4723 15.174 83.6643 15.174H83.8623V17.46C83.6223 17.652 83.3643 17.784 83.0883 17.856C82.8123 17.916 82.4583 17.946 82.0263 17.946ZM83.2323 21.708C82.6323 21.708 81.9123 21.672 81.0723 21.6L79.9923 21.492V19.17H82.4043C82.8363 19.17 83.2563 19.158 83.6643 19.134C83.9643 19.11 84.1803 19.05 84.3123 18.954C84.4563 18.87 84.5463 18.72 84.5823 18.504C84.6063 18.216 84.6183 17.91 84.6183 17.586V8.82H87.9483V16.992C87.9483 17.928 87.9063 18.66 87.8223 19.188C87.7383 19.728 87.5583 20.178 87.2823 20.538C86.9703 20.934 86.4903 21.228 85.8423 21.42C85.2063 21.612 84.3363 21.708 83.2323 21.708ZM93.8006 12.51H95.0606C95.0606 11.838 94.9946 11.406 94.8626 11.214C94.7906 11.106 94.6946 11.04 94.5746 11.016C94.4546 10.98 94.2806 10.962 94.0526 10.962H93.8006V8.676H94.0526C95.0846 8.676 95.8766 8.76 96.4286 8.928C96.9926 9.096 97.4066 9.372 97.6706 9.756C97.9106 10.092 98.0546 10.524 98.1026 11.052C98.1626 11.58 98.1926 12.372 98.1926 13.428V14.148H93.8006V12.51ZM94.4126 18.144C93.3086 18.144 92.4386 18.054 91.8026 17.874C91.1786 17.682 90.7106 17.382 90.3986 16.974C90.1226 16.614 89.9426 16.17 89.8586 15.642C89.7746 15.102 89.7326 14.364 89.7326 13.428C89.7326 12.564 89.7626 11.88 89.8226 11.376C89.8826 10.86 90.0086 10.422 90.2006 10.062C90.4166 9.666 90.7466 9.36 91.1906 9.144C91.6466 8.916 92.2646 8.772 93.0446 8.712V14.148C93.0446 14.556 93.0626 14.85 93.0986 15.03C93.1346 15.198 93.2186 15.324 93.3506 15.408C93.4946 15.504 93.7166 15.558 94.0166 15.57C94.4006 15.594 94.8086 15.606 95.2406 15.606C96.0086 15.606 96.5666 15.588 96.9146 15.552L97.8326 15.48V17.802C97.3526 17.946 96.6926 18.042 95.8526 18.09C95.4446 18.126 94.9646 18.144 94.4126 18.144ZM104.108 9.342C104.36 9.102 104.654 8.934 104.99 8.838C105.338 8.73 105.764 8.676 106.268 8.676V11.682C105.728 11.682 105.284 11.718 104.936 11.79C104.6 11.862 104.324 11.988 104.108 12.168V9.342ZM100.022 8.82H103.352V18H100.022V8.82Z" fill="white"/>
<path d="M2.2125 14.85C3.2 14.4875 3.675 13.875 4.7 13.875C6.1875 13.875 6.475 15.125 8.8625 15.125C11.3 15.125 11.475 13.875 13.025 13.875C14.5125 13.875 14.8 15.125 17.1875 15.125C19.625 15.125 19.8 13.875 21.35 13.875C22.3625 13.875 22.8125 14.45 23.7625 14.825C24.6 15.15 25.5 14.5125 25.5 13.625C25.5 13.0875 25.15 12.6125 24.6375 12.425C23.425 11.9875 23.1125 11.3875 21.325 11.3875C18.8875 11.3875 18.7125 12.6375 17.1625 12.6375C15.675 12.6375 15.3875 11.3875 13 11.3875C10.5625 11.3875 10.3875 12.6375 8.8375 12.6375C7.35 12.6375 7.0625 11.3875 4.675 11.3875C2.7375 11.3875 2.225 12.175 1.325 12.5C0.8375 12.675 0.5125 13.15 0.5125 13.675C0.5125 14.5375 1.3875 15.15 2.2125 14.85ZM0.5 20.75C0.5 22.125 1.625 23.25 3 23.25H23C24.375 23.25 25.5 22.125 25.5 20.75V19.5C25.5 18.125 24.375 17 23 17H3C1.625 17 0.5 18.125 0.5 19.5V20.75ZM25.5 8.25C25.525 3.25 20.15 0.75 13 0.75C5.8625 0.75 0.5 3.25 0.5 8.25C0.5 8.9375 1.0625 9.5 1.75 9.5H24.25C24.9375 9.5 25.5 8.9375 25.5 8.25Z" fill="white"/>
</svg>
